<svg version="1.1" xmlns="http://www.w3.org/2000/svg" viewBox="0 0 1585.768541926563 852.2769519179928" width="1585.768541926563" height="852.2769519179928">
  <!-- svg-source:excalidraw -->
  
  <defs>
    <style class="style-fonts">
      @font-face {
        font-family: "Virgil";
        src: url("https://excalidraw.com/Virgil.woff2");
      }
      @font-face {
        font-family: "Cascadia";
        src: url("https://excalidraw.com/Cascadia.woff2");
      }
      @font-face {
        font-family: "Assistant";
        src: url("https://excalidraw.com/Assistant-Regular.woff2");
      }
    </style>
    
  </defs>
  <rect x="0" y="0" width="1585.768541926563" height="852.2769519179928" fill="#ffffff"></rect><g stroke-linecap="round" transform="translate(984.1223102071497 215.43543414006672) rotate(0 85.5 81.5)"><path d="M90.98 1.11 C101.95 0.73, 115.04 4.68, 125.48 9.65 C135.92 14.62, 146.35 22.05, 153.64 30.91 C160.93 39.76, 166.45 51.82, 169.21 62.78 C171.98 73.75, 172.35 86.09, 170.22 96.69 C168.08 107.29, 163.04 117.34, 156.41 126.38 C149.78 135.42, 140.42 145.06, 130.42 150.93 C120.41 156.79, 107.74 160, 96.38 161.57 C85.02 163.14, 73.33 163.22, 62.25 160.37 C51.17 157.53, 38.77 151.55, 29.89 144.51 C21.02 137.46, 14.11 128.23, 9.02 118.1 C3.94 107.97, -0.3 94.82, -0.62 83.72 C-0.94 72.62, 2.74 61.77, 7.11 51.5 C11.48 41.23, 17.34 29.74, 25.6 22.09 C33.87 14.44, 44.84 9.1, 56.7 5.6 C68.57 2.11, 89.72 1.5, 96.78 1.12 C103.83 0.74, 99.49 1.93, 99.03 3.3 M104.38 1.52 C115.6 2.31, 126.91 8.46, 136.31 14.95 C145.71 21.44, 155.03 30.51, 160.76 40.47 C166.49 50.43, 169.65 63.74, 170.7 74.71 C171.75 85.68, 171.02 96.01, 167.06 106.3 C163.1 116.59, 155.06 127.91, 146.95 136.44 C138.84 144.98, 128.76 152.83, 118.41 157.5 C108.06 162.18, 96.25 165.04, 84.84 164.49 C73.43 163.94, 60.31 158.94, 49.96 154.21 C39.6 149.48, 30.35 144.04, 22.73 136.09 C15.1 128.15, 7.73 117.4, 4.21 106.53 C0.69 95.66, 0.19 81.77, 1.59 70.88 C2.99 59.99, 6.65 50.38, 12.61 41.19 C18.56 32, 27.86 22.49, 37.32 15.76 C46.79 9.02, 58 3.03, 69.39 0.77 C80.78 -1.5, 100.16 1.92, 105.67 2.17 C111.18 2.41, 102.87 0.87, 102.45 2.26" stroke="#1e1e1e" stroke-width="2" fill="none"></path></g><g transform="translate(1028.974708491872 284.30623147336337) rotate(0 40.689971923828125 12.5)"><text x="40.689971923828125" y="17.52" font-family="Virgil, Segoe UI Emoji" font-size="20px" fill="#1e1e1e" text-anchor="middle" style="white-space: pre;" direction="ltr" dominant-baseline="alphabetic">NORMAL</text></g><g stroke-linecap="round" transform="translate(998.0454356769264 588.0941216102501) rotate(0 85.5 81.5)"><path d="M59.35 4.34 C69.54 -0.05, 83.46 -0.46, 95.09 0.62 C106.72 1.7, 119.15 5.22, 129.14 10.84 C139.12 16.45, 148.18 25.3, 154.99 34.31 C161.8 43.31, 167.62 54.34, 169.99 64.87 C172.37 75.4, 171.73 86.79, 169.24 97.5 C166.74 108.21, 161.9 120.1, 155 129.14 C148.11 138.17, 137.82 146.07, 127.87 151.69 C117.92 157.32, 106.63 161.69, 95.32 162.88 C84.01 164.07, 71.26 162.25, 60.02 158.83 C48.78 155.4, 36.55 149.69, 27.89 142.34 C19.23 134.99, 12.86 124.91, 8.06 114.73 C3.26 104.55, -0.8 92.34, -0.93 81.26 C-1.06 70.17, 2.51 58.11, 7.28 48.23 C12.05 38.35, 17.72 29.72, 27.69 21.97 C37.66 14.21, 59.15 4.9, 67.08 1.69 C75 -1.52, 75.03 1.44, 75.24 2.7 M100.63 1.96 C111.39 2.59, 123.84 8.48, 133.31 14.72 C142.78 20.97, 151.43 30.16, 157.44 39.44 C163.44 48.72, 167.79 59.25, 169.33 70.41 C170.87 81.58, 170.11 95.61, 166.68 106.43 C163.25 117.26, 156.15 127.31, 148.75 135.35 C141.34 143.4, 132.75 150.23, 122.23 154.69 C111.71 159.15, 97.29 161.62, 85.64 162.09 C73.99 162.57, 62.87 161.87, 52.34 157.57 C41.8 153.26, 30.22 144.54, 22.44 136.27 C14.66 128, 9.5 118.33, 5.65 107.94 C1.8 97.54, -1.7 84.75, -0.68 73.89 C0.34 63.02, 5.81 52.39, 11.79 42.75 C17.76 33.11, 26.03 23.04, 35.15 16.05 C44.27 9.06, 55.28 3.25, 66.51 0.82 C77.74 -1.61, 96.74 1.06, 102.54 1.47 C108.34 1.89, 101.91 2.19, 101.31 3.3" stroke="#1e1e1e" stroke-width="2" fill="none"></path></g><g transform="translate(1042.8778525773712 656.9649189435468) rotate(0 40.70995330810547 12.5)"><text x="40.70995330810547" y="17.52" font-family="Virgil, Segoe UI Emoji" font-size="20px" fill="#1e1e1e" text-anchor="middle" style="white-space: pre;" direction="ltr" dominant-baseline="alphabetic">FREEZE</text></g><g stroke-linecap="round" transform="translate(1404.768541926563 391.47698534287065) rotate(0 85.5 81.5)"><path d="M120.61 7.35 C131.3 10.72, 142.29 20.03, 150.13 28.15 C157.97 36.26, 164.19 45.79, 167.66 56.04 C171.13 66.3, 172.21 78.48, 170.96 89.7 C169.71 100.92, 166.17 113.67, 160.14 123.35 C154.12 133.03, 144.37 141.47, 134.82 147.77 C125.26 154.07, 114.2 158.82, 102.83 161.15 C91.46 163.49, 77.86 164.24, 66.59 161.79 C55.33 159.34, 44.57 153.04, 35.21 146.44 C25.85 139.85, 16.17 131.61, 10.43 122.24 C4.69 112.86, 1.87 101.17, 0.77 90.21 C-0.32 79.25, 0.13 66.97, 3.87 56.47 C7.61 45.97, 15.31 35.35, 23.22 27.19 C31.14 19.02, 40.99 11.93, 51.36 7.5 C61.73 3.06, 73.44 0.5, 85.46 0.59 C97.49 0.68, 117.04 6.49, 123.51 8.06 C129.98 9.62, 125.04 8.83, 124.27 9.97 M112.61 4.94 C123.48 6.76, 133.98 12.19, 142.35 19.22 C150.71 26.25, 157.89 36.64, 162.83 47.11 C167.77 57.57, 172.01 70.69, 172 82.02 C172 93.35, 167.41 105.3, 162.8 115.1 C158.19 124.9, 152.88 133.41, 144.34 140.81 C135.8 148.2, 122.7 155.98, 111.56 159.48 C100.43 162.98, 89.05 163.07, 77.54 161.8 C66.02 160.52, 52.64 157, 42.47 151.84 C32.3 146.67, 23.48 139.73, 16.52 130.81 C9.56 121.9, 3.29 109.25, 0.71 98.34 C-1.87 87.44, -1.5 76.12, 1.04 65.38 C3.58 54.64, 9.09 42.72, 15.96 33.88 C22.83 25.05, 32.34 17.75, 42.25 12.38 C52.15 7.01, 64.05 2.94, 75.37 1.65 C86.68 0.36, 104.33 3.84, 110.15 4.65 C115.98 5.46, 110.52 5.1, 110.31 6.51" stroke="#1e1e1e" stroke-width="2" fill="none"></path></g><g transform="translate(1460.1309270887266 460.3477826761673) rotate(0 30.17998504638672 12.5)"><text x="30.17998504638672" y="17.52" font-family="Virgil, Segoe UI Emoji" font-size="20px" fill="#1e1e1e" text-anchor="middle" style="white-space: pre;" direction="ltr" dominant-baseline="alphabetic">FINAL</text></g><g stroke-linecap="round" transform="translate(241.61586287891532 417.3476127775675) rotate(0 85.5 81.5)"><path d="M59.33 3.45 C69.64 -1, 83.98 -1.32, 95.79 0.17 C107.6 1.67, 120.29 6.85, 130.19 12.42 C140.1 17.98, 148.61 24.77, 155.22 33.56 C161.84 42.35, 167.53 54.15, 169.86 65.14 C172.18 76.12, 171.84 88.57, 169.18 99.46 C166.51 110.36, 160.86 121.61, 153.87 130.51 C146.89 139.41, 137.25 147.52, 127.27 152.85 C117.29 158.19, 105.5 161.39, 93.97 162.52 C82.44 163.65, 69.2 163.29, 58.09 159.63 C46.99 155.97, 35.86 148.2, 27.34 140.57 C18.83 132.95, 11.54 124.04, 6.99 113.89 C2.44 103.73, -0.07 90.86, 0.05 79.63 C0.17 68.4, 3.01 56.32, 7.7 46.53 C12.39 36.73, 17.81 28.43, 28.18 20.88 C38.54 13.33, 61.16 4.35, 69.87 1.24 C78.58 -1.86, 80 1, 80.45 2.27 M112.58 4.89 C123.78 7, 135.77 14.97, 144.14 22.2 C152.51 29.44, 158.5 38.49, 162.81 48.29 C167.13 58.09, 170.14 69.96, 170.04 80.99 C169.94 92.02, 166.76 104.33, 162.21 114.47 C157.66 124.61, 150.97 134.63, 142.74 141.83 C134.51 149.04, 123.84 154.07, 112.83 157.7 C101.81 161.32, 88.22 164.53, 76.66 163.59 C65.09 162.65, 53.34 157.76, 43.44 152.06 C33.53 146.36, 24.16 138.26, 17.22 129.39 C10.29 120.51, 4.21 109.63, 1.83 98.83 C-0.56 88.02, 0.63 75.64, 2.92 64.55 C5.2 53.46, 9.02 41.4, 15.51 32.31 C22.01 23.22, 31.66 15.49, 41.9 10 C52.13 4.51, 65.29 0.55, 76.94 -0.64 C88.58 -1.83, 105.85 1.66, 111.79 2.85 C117.73 4.04, 113.12 4.77, 112.56 6.5" stroke="#1e1e1e" stroke-width="2" fill="none"></path></g><g transform="translate(292.5482706240866 486.21841011086417) rotate(0 34.609962463378906 12.5)"><text x="34.609962463378906" y="17.52" font-family="Virgil, Segoe UI Emoji" font-size="20px" fill="#1e1e1e" text-anchor="middle" style="white-space: pre;" direction="ltr" dominant-baseline="alphabetic">SETUP</text></g><g stroke-linecap="round" transform="translate(641.1296080953335 412.0328167684911) rotate(0 85.5 81.5)"><path d="M104.74 2.26 C115.94 3.26, 127.41 8.86, 136.56 15.37 C145.72 21.88, 153.82 31.62, 159.65 41.29 C165.48 50.97, 170.24 62.34, 171.54 73.43 C172.84 84.51, 171.29 97.19, 167.44 107.81 C163.6 118.44, 156.46 128.98, 148.47 137.18 C140.48 145.37, 130.16 152.62, 119.5 156.99 C108.84 161.36, 96.15 163.75, 84.52 163.4 C72.89 163.04, 60.41 159.53, 49.73 154.88 C39.05 150.23, 28.07 143.68, 20.43 135.5 C12.79 127.31, 7.23 116.16, 3.91 105.76 C0.6 95.35, -0.66 84.03, 0.56 73.04 C1.78 62.05, 5.48 49.38, 11.25 39.82 C17.02 30.25, 25.7 22.07, 35.2 15.66 C44.7 9.25, 55.18 3.3, 68.25 1.37 C81.31 -0.55, 104.48 2.65, 113.58 4.1 C122.69 5.55, 123.1 8.73, 122.89 10.09 M64.13 2.24 C74.29 -1.78, 88.09 -1.95, 99.47 0.29 C110.85 2.53, 122.65 9.41, 132.4 15.69 C142.15 21.97, 151.75 28.93, 157.96 37.98 C164.18 47.02, 168.02 58.9, 169.68 69.97 C171.33 81.04, 171.21 93.76, 167.87 104.39 C164.53 115.02, 157.23 125.43, 149.65 133.74 C142.07 142.04, 132.86 149.25, 122.4 154.2 C111.93 159.16, 98.44 162.8, 86.85 163.46 C75.26 164.13, 63.18 162.57, 52.88 158.2 C42.57 153.84, 32.82 145.74, 25.02 137.27 C17.21 128.8, 10.1 117.52, 6.04 107.39 C1.98 97.26, -0.09 87.1, 0.66 76.5 C1.42 65.91, 5.2 53.78, 10.58 43.81 C15.95 33.84, 23.82 23.39, 32.91 16.68 C42.01 9.97, 59.59 5.73, 65.12 3.57 C70.66 1.4, 65.62 2.5, 66.13 3.71" stroke="#1e1e1e" stroke-width="2" fill="none"></path></g><g transform="translate(683.2920039386494 480.90361410178775) rotate(0 43.379974365234375 12.5)"><text x="43.379974365234375" y="17.52" font-family="Virgil, Segoe UI Emoji" font-size="20px" fill="#1e1e1e" text-anchor="middle" style="white-space: pre;" direction="ltr" dominant-baseline="alphabetic">INITIAL</text></g><g mask="url(#mask-u6p4pu5M2oH0QsVT4quLC)" stroke-linecap="round"><g transform="translate(426.0137391344715 497.9397486648686) rotate(0 106.1911643631102 0)"><path d="M-0.13 0.08 C35.54 0.45, 177.96 1.11, 213.47 1.18 M-1.66 -0.92 C34 -0.76, 177.41 -0.21, 213.1 -0.33" stroke="#1e1e1e" stroke-width="2" fill="none"></path></g><g transform="translate(426.0137391344715 497.9397486648686) rotate(0 106.1911643631102 0)"><path d="M189.6 8.2 C195.75 7.89, 203.53 4.83, 213.1 -0.33 M189.6 8.2 C197.83 5.59, 204.63 1.56, 213.1 -0.33" stroke="#1e1e1e" stroke-width="2" fill="none"></path></g><g transform="translate(426.0137391344715 497.9397486648686) rotate(0 106.1911643631102 0)"><path d="M189.61 -8.9 C195.61 -4.88, 203.38 -3.62, 213.1 -0.33 M189.61 -8.9 C197.86 -5.68, 204.65 -3.88, 213.1 -0.33" stroke="#1e1e1e" stroke-width="2" fill="none"></path></g></g><mask id="mask-u6p4pu5M2oH0QsVT4quLC"><rect x="0" y="0" fill="#fff" width="738.3960678606919" height="597.9397486648686"></rect><rect x="503.8549355410387" y="485.4397486648686" fill="#000" width="56.69993591308594" height="25" opacity="1"></rect></mask><g transform="translate(503.8549355410386 485.4397486648686) rotate(0 28.06456756544776 12.627721437909713)"><text x="28.34996795654297" y="17.52" font-family="Virgil, Segoe UI Emoji" font-size="20px" fill="#1e1e1e" text-anchor="middle" style="white-space: pre;" direction="ltr" dominant-baseline="alphabetic">Start</text></g><g mask="url(#mask-WNNuACPdcU3x3uAlGqi1T)" stroke-linecap="round"><g transform="translate(810.4376190634963 550.1454607539954) rotate(0 91.95324288425746 43.90025789312949)"><path d="M1.02 0.91 C31.79 15.31, 154.67 72.17, 185.07 86.67 M0.09 0.34 C30.76 14.83, 154.34 72.79, 184.73 87.61" stroke="#1e1e1e" stroke-width="2" fill="none"></path></g><g transform="translate(810.4376190634963 550.1454607539954) rotate(0 91.95324288425746 43.90025789312949)"><path d="M159.84 85.21 C169.78 87.75, 174.79 85.82, 184.73 87.61 M159.84 85.21 C167.62 84.95, 174.36 86.22, 184.73 87.61" stroke="#1e1e1e" stroke-width="2" fill="none"></path></g><g transform="translate(810.4376190634963 550.1454607539954) rotate(0 91.95324288425746 43.90025789312949)"><path d="M167.21 69.78 C174.68 77.59, 177.21 80.89, 184.73 87.61 M167.21 69.78 C172.63 74.29, 177.1 80.31, 184.73 87.61" stroke="#1e1e1e" stroke-width="2" fill="none"></path></g></g><mask id="mask-WNNuACPdcU3x3uAlGqi1T"><rect x="0" y="0" fill="#fff" width="1094.344104832011" height="737.9459765402544"></rect><rect x="828.6009449555664" y="569.0457186471249" fill="#000" width="147.579833984375" height="50" opacity="1"></rect></mask><g mask="url(#mask-oDsT7A-kZjkQ0OTnWYTWE)" stroke-linecap="round"><g transform="translate(1137.9098130771097 585.7402644511276) rotate(0 16.610908391995054 -108.56415127625223)"><path d="M-0.67 -0.65 C5.71 -19.68, 40.16 -77.26, 39.35 -113.3 C38.55 -149.34, 2.11 -199.52, -5.52 -216.88 M1.18 1.62 C7.33 -17.34, 39.72 -75.9, 38.51 -112.07 C37.3 -148.24, 1.42 -198.02, -6.07 -215.43" stroke="#1e1e1e" stroke-width="2" fill="none"></path></g><g transform="translate(1137.9098130771097 585.7402644511276) rotate(0 16.610908391995054 -108.56415127625223)"><path d="M12.73 -198.94 C4.21 -205.12, -2.99 -211.18, -6.07 -215.43 M12.73 -198.94 C7.72 -205.22, 0.65 -209.61, -6.07 -215.43" stroke="#1e1e1e" stroke-width="2" fill="none"></path></g><g transform="translate(1137.9098130771097 585.7402644511276) rotate(0 16.610908391995054 -108.56415127625223)"><path d="M-2.27 -190.72 C-5.02 -200.01, -6.38 -209.27, -6.07 -215.43 M-2.27 -190.72 C-2.43 -199.59, -4.68 -206.62, -6.07 -215.43" stroke="#1e1e1e" stroke-width="2" fill="none"></path></g></g><mask id="mask-oDsT7A-kZjkQ0OTnWYTWE"><rect x="0" y="0" fill="#fff" width="1282.9965644268102" height="902.868567003632"></rect><rect x="1130.3241374271583" y="460.5233860768767" fill="#000" width="93.47991943359375" height="25" opacity="1"></rect></mask><g mask="url(#mask-YR46PfatAIH23xJKEmRnz)" stroke-linecap="round"><g transform="translate(1005.0225459411506 361.49300115919596) rotate(0 -8.305454195997413 122.8020727551052)"><path d="M-0.89 -0.01 C-5.6 19.57, -30.98 75.56, -28.68 116.51 C-26.38 157.46, 6.08 224.05, 12.93 245.7 M0.85 -1.06 C-3.9 18.72, -30.98 76.19, -29.11 117.54 C-27.24 158.9, 5.19 225.95, 12.1 247.07" stroke="#1e1e1e" stroke-width="2" fill="none"></path></g><g transform="translate(1005.0225459411506 361.49300115919596) rotate(0 -8.305454195997413 122.8020727551052)"><path d="M-4.46 228.34 C-0.23 235.08, 2.6 238.21, 12.1 247.07 M-4.46 228.34 C1.47 233.81, 4.93 240.75, 12.1 247.07" stroke="#1e1e1e" stroke-width="2" fill="none"></path></g><g transform="translate(1005.0225459411506 361.49300115919596) rotate(0 -8.305454195997413 122.8020727551052)"><path d="M11.46 222.08 C11.41 230.37, 10 235.16, 12.1 247.07 M11.46 222.08 C12.45 229.59, 11 238.46, 12.1 247.07" stroke="#1e1e1e" stroke-width="2" fill="none"></path></g></g><mask id="mask-YR46PfatAIH23xJKEmRnz"><rect x="0" y="0" fill="#fff" width="1147.7363103777088" height="707.0971466694064"></rect><rect x="865.8903151176944" y="453.9558533597319" fill="#000" width="218.93978881835938" height="50" opacity="1"></rect></mask><g transform="translate(1130.3241374271583 460.5233860768767) rotate(0 24.235770102191964 17.588476066220665)"><text x="46.739959716796875" y="17.52" font-family="Virgil, Segoe UI Emoji" font-size="20px" fill="#1e1e1e" text-anchor="middle" style="white-space: pre;" direction="ltr" dominant-baseline="alphabetic">nextBlock</text></g><g transform="translate(828.6009449555662 569.0457186471249) rotate(0 74.41715866935891 25.07399523933418)"><text x="73.7899169921875" y="17.52" font-family="Virgil, Segoe UI Emoji" font-size="20px" fill="#1e1e1e" text-anchor="middle" style="white-space: pre;" direction="ltr" dominant-baseline="alphabetic">First Block - </text><text x="73.7899169921875" y="42.519999999999996" font-family="Virgil, Segoe UI Emoji" font-size="20px" fill="#1e1e1e" text-anchor="middle" style="white-space: pre;" direction="ltr" dominant-baseline="alphabetic">freezeDuration</text></g><g mask="url(#mask-5e7EEx1rTg_y3jUdPDuFI)" stroke-linecap="round"><g transform="translate(1182.9965644268102 650.9974045625358) rotate(0 108.56415127625246 -66.44363356797976)"><path d="M0.83 -0.93 C37.06 -23.25, 180.57 -111.7, 216.46 -133.58 M-0.19 1.19 C36.51 -21.01, 182.36 -109.84, 218.82 -132.41" stroke="#1e1e1e" stroke-width="2" fill="none"></path></g><g transform="translate(1182.9965644268102 650.9974045625358) rotate(0 108.56415127625246 -66.44363356797976)"><path d="M203.26 -112.84 C205.14 -118.46, 209.04 -123.36, 218.82 -132.41 M203.26 -112.84 C208.47 -118.76, 214.95 -126.66, 218.82 -132.41" stroke="#1e1e1e" stroke-width="2" fill="none"></path></g><g transform="translate(1182.9965644268102 650.9974045625358) rotate(0 108.56415127625246 -66.44363356797976)"><path d="M194.32 -127.42 C198.25 -129.82, 204.15 -131.46, 218.82 -132.41 M194.32 -127.42 C202.82 -128.1, 212.47 -130.85, 218.82 -132.41" stroke="#1e1e1e" stroke-width="2" fill="none"></path></g></g><mask id="mask-5e7EEx1rTg_y3jUdPDuFI"><rect x="0" y="0" fill="#fff" width="1500.124866979315" height="883.8846716984954"></rect><rect x="1245.2107630053088" y="572.0537709945565" fill="#000" width="92.69990539550781" height="25" opacity="1"></rect></mask><g transform="translate(1245.2107630053085 572.0537709945565) rotate(0 47.096626383317584 12.748860485352907)"><text x="46.349952697753906" y="17.52" font-family="Virgil, Segoe UI Emoji" font-size="20px" fill="#1e1e1e" text-anchor="middle" style="white-space: pre;" direction="ltr" dominant-baseline="alphabetic">finalBlock</text></g><g transform="translate(865.8903151176945 453.9558533597319) rotate(0 130.9945090725497 30.54048780837229)"><text x="109.46989440917969" y="17.52" font-family="Virgil, Segoe UI Emoji" font-size="20px" fill="#1e1e1e" text-anchor="middle" style="white-space: pre;" direction="ltr" dominant-baseline="alphabetic">nextFreeze (nextBlock</text><text x="109.46989440917969" y="42.519999999999996" font-family="Virgil, Segoe UI Emoji" font-size="20px" fill="#1e1e1e" text-anchor="middle" style="white-space: pre;" direction="ltr" dominant-baseline="alphabetic">- freezeDuration)</text></g><g mask="url(#mask-6R_hn6gRqZf-sWMCtMugg)" stroke-linecap="round"><g transform="translate(10.741029334599148 493.19377483858443) rotate(0 108.56415127625235 -1.1864934565710428)"><path d="M0.47 0 C36.84 -0.23, 182.14 -1.98, 218.21 -2.44 M-0.74 -1.05 C35.57 -0.99, 181.71 -0.84, 217.83 -0.94" stroke="#1e1e1e" stroke-width="2" fill="none"></path></g><g transform="translate(10.741029334599148 493.19377483858443) rotate(0 108.56415127625235 -1.1864934565710428)"><path d="M194.34 7.63 C201.41 6.78, 208.3 1.99, 217.83 -0.94 M194.34 7.63 C201.15 4.27, 206.29 3.95, 217.83 -0.94" stroke="#1e1e1e" stroke-width="2" fill="none"></path></g><g transform="translate(10.741029334599148 493.19377483858443) rotate(0 108.56415127625235 -1.1864934565710428)"><path d="M194.33 -9.48 C201.25 -5.22, 208.14 -4.92, 217.83 -0.94 M194.33 -9.48 C200.98 -8.26, 206.12 -4.02, 217.83 -0.94" stroke="#1e1e1e" stroke-width="2" fill="none"></path></g></g><mask id="mask-6R_hn6gRqZf-sWMCtMugg"><rect x="0" y="0" fill="#fff" width="327.86933188710384" height="595.5667617517265"></rect><rect x="91.49521356983587" y="479.5072813820134" fill="#000" width="55.61993408203125" height="25" opacity="1"></rect></mask><g transform="translate(91.49521356983587 479.5072813820134) rotate(0 27.97955235328061 12.465652415901332)"><text x="27.809967041015625" y="17.52" font-family="Virgil, Segoe UI Emoji" font-size="20px" fill="#1e1e1e" text-anchor="middle" style="white-space: pre;" direction="ltr" dominant-baseline="alphabetic">Setup</text></g><g mask="url(#mask-VhM3WW0fjD06C4-QYVqsw)" stroke-linecap="round"><g transform="translate(287.30149863461827 579.4268325814992) rotate(0 43.307011164843914 24.916362587991898)"><path d="M-0.15 0.49 C6.48 8.83, 25.69 49.7, 40.19 49.56 C54.68 49.41, 79.2 7.75, 86.83 -0.37 M-1.69 -0.29 C4.84 8.27, 25.13 50.78, 39.78 50.95 C54.42 51.13, 78.5 9.46, 86.18 0.75" stroke="#1e1e1e" stroke-width="2" fill="none"></path></g><g transform="translate(287.30149863461827 579.4268325814992) rotate(0 43.307011164843914 24.916362587991898)"><path d="M79.34 24.8 C82.54 18.52, 83.53 9.16, 86.18 0.75 M79.34 24.8 C81.38 17.96, 83.41 11.81, 86.18 0.75" stroke="#1e1e1e" stroke-width="2" fill="none"></path></g><g transform="translate(287.30149863461827 579.4268325814992) rotate(0 43.307011164843914 24.916362587991898)"><path d="M65.49 14.78 C73.25 11.85, 78.87 5.83, 86.18 0.75 M65.49 14.78 C71.2 10.54, 76.96 7.09, 86.18 0.75" stroke="#1e1e1e" stroke-width="2" fill="none"></path></g></g><mask id="mask-VhM3WW0fjD06C4-QYVqsw"><rect x="0" y="0" fill="#fff" width="473.9155209643061" height="729.259557757483"></rect><rect x="273.4058406848619" y="616.759557757483" fill="#000" width="106.09988403320312" height="25" opacity="1"></rect></mask><g transform="translate(273.4058406848619 616.759557757483) rotate(0 56.46658673431199 -12.042056321135988)"><text x="53.04994201660156" y="17.52" font-family="Virgil, Segoe UI Emoji" font-size="20px" fill="#1e1e1e" text-anchor="middle" style="white-space: pre;" direction="ltr" dominant-baseline="alphabetic">Sell Ticket</text></g><g mask="url(#mask-gMExvd73ie104pAODoHTm)" stroke-linecap="round"><g transform="translate(676.4713523899273 582.9863129512123) rotate(0 43.307011164843914 24.916362587991898)"><path d="M-1.02 1.17 C5.52 9.59, 24.43 50.03, 38.87 49.95 C53.3 49.86, 77.81 8.94, 85.58 0.64 M0.64 0.74 C7.04 9.43, 23.22 51.89, 37.77 51.54 C52.31 51.19, 80.03 7.01, 87.92 -1.37" stroke="#1e1e1e" stroke-width="2" fill="none"></path></g><g transform="translate(676.4713523899273 582.9863129512123) rotate(0 43.307011164843914 24.916362587991898)"><path d="M80.39 22.47 C84.46 15.72, 84.7 8.14, 87.92 -1.37 M80.39 22.47 C82.59 13.89, 85.71 4.7, 87.92 -1.37" stroke="#1e1e1e" stroke-width="2" fill="none"></path></g><g transform="translate(676.4713523899273 582.9863129512123) rotate(0 43.307011164843914 24.916362587991898)"><path d="M66.83 12.05 C74.45 8.19, 78.29 3.37, 87.92 -1.37 M66.83 12.05 C73.72 7.14, 81.63 1.63, 87.92 -1.37" stroke="#1e1e1e" stroke-width="2" fill="none"></path></g></g><mask id="mask-gMExvd73ie104pAODoHTm"><rect x="0" y="0" fill="#fff" width="863.0853747196152" height="732.8190381271961"></rect><rect x="662.5756944401711" y="620.3190381271961" fill="#000" width="106.09988403320312" height="25" opacity="1"></rect></mask><g transform="translate(662.575694440171 620.3190381271961) rotate(0 57.34563241609777 -12.243696678546257)"><text x="53.04994201660156" y="17.52" font-family="Virgil, Segoe UI Emoji" font-size="20px" fill="#1e1e1e" text-anchor="middle" style="white-space: pre;" direction="ltr" dominant-baseline="alphabetic">Sell Ticket</text></g><g mask="url(#mask-ws75YPJz8TeJCCpTg2sUQ)" stroke-linecap="round"><g transform="translate(271.8770836991945 407.38528137869434) rotate(0 56.951685915411076 -26.696102772848917)"><path d="M-0.65 0.44 C8.98 -8.35, 38.78 -52.31, 57.86 -52.39 C76.93 -52.46, 104.54 -8.85, 113.82 0 M1.21 -0.38 C10.64 -9.52, 38.13 -54.27, 56.76 -53.98 C75.39 -53.7, 103.54 -7.43, 113.01 1.32" stroke="#1e1e1e" stroke-width="2" fill="none"></path></g><g transform="translate(271.8770836991945 407.38528137869434) rotate(0 56.951685915411076 -26.696102772848917)"><path d="M91.56 -11.51 C98.94 -7.91, 106.5 -3.63, 113.01 1.32 M91.56 -11.51 C97.54 -6.88, 105.15 -4.13, 113.01 1.32" stroke="#1e1e1e" stroke-width="2" fill="none"></path></g><g transform="translate(271.8770836991945 407.38528137869434) rotate(0 56.951685915411076 -26.696102772848917)"><path d="M104.83 -22.3 C108.15 -15.45, 111.62 -7.83, 113.01 1.32 M104.83 -22.3 C106.79 -14.35, 110.42 -8.36, 113.01 1.32" stroke="#1e1e1e" stroke-width="2" fill="none"></path></g></g><mask id="mask-ws75YPJz8TeJCCpTg2sUQ"><rect x="0" y="0" fill="#fff" width="485.78045553001664" height="560.7774869243922"></rect><rect x="273.9753155614111" y="341.4930758329965" fill="#000" width="112.07989501953125" height="25" opacity="1"></rect></mask><g transform="translate(273.9753155614111 341.4930758329965) rotate(0 54.48687826597802 39.56042987149158)"><text x="56.039947509765625" y="17.52" font-family="Virgil, Segoe UI Emoji" font-size="20px" fill="#1e1e1e" text-anchor="middle" style="white-space: pre;" direction="ltr" dominant-baseline="alphabetic">Accept Bet</text></g><g mask="url(#mask-R4OS3zhg92bxMREv3XjWZ)" stroke-linecap="round"><g transform="translate(670.5388851070719 410.9447617484075) rotate(0 56.951685915411076 -26.696102772848917)"><path d="M-0.25 0.64 C9.31 -8.47, 38.15 -53.6, 57.16 -53.56 C76.17 -53.53, 104.35 -8.07, 113.8 0.86 M1.81 -0.06 C11.76 -8.48, 40.83 -51.95, 59.36 -52.11 C77.89 -52.28, 103.86 -9.91, 112.98 -1.03" stroke="#1e1e1e" stroke-width="2" fill="none"></path></g><g transform="translate(670.5388851070719 410.9447617484075) rotate(0 56.951685915411076 -26.696102772848917)"><path d="M91.57 -13.93 C98.78 -11.89, 103.43 -6.81, 112.98 -1.03 M91.57 -13.93 C100.08 -9.33, 106.49 -5.32, 112.98 -1.03" stroke="#1e1e1e" stroke-width="2" fill="none"></path></g><g transform="translate(670.5388851070719 410.9447617484075) rotate(0 56.951685915411076 -26.696102772848917)"><path d="M104.87 -24.68 C108.45 -19.65, 109.37 -11.55, 112.98 -1.03 M104.87 -24.68 C108.44 -16.08, 109.9 -8.07, 112.98 -1.03" stroke="#1e1e1e" stroke-width="2" fill="none"></path></g></g><mask id="mask-R4OS3zhg92bxMREv3XjWZ"><rect x="0" y="0" fill="#fff" width="884.4422569378941" height="564.3369672941053"></rect><rect x="672.6371169692885" y="345.05255620270964" fill="#000" width="112.07989501953125" height="25" opacity="1"></rect></mask><g mask="url(#mask-u-vKerocqGfbCL9SkS6kM)" stroke-linecap="round"><g transform="translate(1021.7409482521068 757.4008510671583) rotate(0 56.951685915411076 36.18805042541726)"><path d="M0.73 -1.09 C8.83 10.95, 29.7 72.05, 48.71 72.93 C67.72 73.8, 103.77 15.62, 114.79 4.15 M-0.34 0.96 C7.59 12.57, 28.66 70.39, 47.79 71.1 C66.93 71.8, 103.2 16.19, 114.48 5.16" stroke="#1e1e1e" stroke-width="2" fill="none"></path></g><g transform="translate(1021.7409482521068 757.4008510671583) rotate(0 56.951685915411076 36.18805042541726)"><path d="M106.21 28.75 C106.83 21.47, 112.13 15.5, 114.48 5.16 M106.21 28.75 C109.09 22.93, 110.47 16.1, 114.48 5.16" stroke="#1e1e1e" stroke-width="2" fill="none"></path></g><g transform="translate(1021.7409482521068 757.4008510671583) rotate(0 56.951685915411076 36.18805042541726)"><path d="M92.98 17.91 C97.78 13.92, 107.19 11.32, 114.48 5.16 M92.98 17.91 C99.26 14.88, 103.96 10.76, 114.48 5.16" stroke="#1e1e1e" stroke-width="2" fill="none"></path></g></g><mask id="mask-u-vKerocqGfbCL9SkS6kM"><rect x="0" y="0" fill="#fff" width="1235.644320082929" height="929.7769519179928"></rect><rect x="972.9372822054074" y="817.2769519179928" fill="#000" width="194.89979553222656" height="25" opacity="1"></rect></mask><g transform="translate(972.9372822054073 817.2769519179928) rotate(0 106.02511025497108 -23.95061290684498)"><text x="97.44989776611328" y="17.52" font-family="Virgil, Segoe UI Emoji" font-size="20px" fill="#1e1e1e" text-anchor="middle" style="white-space: pre;" direction="ltr" dominant-baseline="alphabetic">Change round length</text></g><g transform="translate(672.6371169692885 345.05255620270964) rotate(0 54.67542485946535 39.541266935450494)"><text x="56.039947509765625" y="17.52" font-family="Virgil, Segoe UI Emoji" font-size="20px" fill="#1e1e1e" text-anchor="middle" style="white-space: pre;" direction="ltr" dominant-baseline="alphabetic">Accept Bet</text></g><g mask="url(#mask-n45u7fTLOTNandXf5j1wB)" stroke-linecap="round"><g transform="translate(1009.8760136863964 208.05438067475552) rotate(0 56.951685915411076 -26.696102772848917)"><path d="M-0.87 0.54 C8.84 -8.37, 38.63 -52.41, 57.59 -52.46 C76.55 -52.51, 103.68 -8.35, 112.89 0.26 M0.88 -0.22 C10.44 -9.54, 37.29 -54.41, 56.36 -54.09 C75.42 -53.77, 105.89 -7.28, 115.26 1.71" stroke="#1e1e1e" stroke-width="2" fill="none"></path></g><g transform="translate(1009.8760136863964 208.05438067475552) rotate(0 56.951685915411076 -26.696102772848917)"><path d="M93.67 -10.9 C100.01 -8.54, 106 -6.19, 115.26 1.71 M93.67 -10.9 C101.07 -6.8, 107.97 -2.65, 115.26 1.71" stroke="#1e1e1e" stroke-width="2" fill="none"></path></g><g transform="translate(1009.8760136863964 208.05438067475552) rotate(0 56.951685915411076 -26.696102772848917)"><path d="M106.83 -21.83 C110 -16.86, 112.74 -11.81, 115.26 1.71 M106.83 -21.83 C109.91 -14.3, 112.58 -6.64, 115.26 1.71" stroke="#1e1e1e" stroke-width="2" fill="none"></path></g></g><mask id="mask-n45u7fTLOTNandXf5j1wB"><rect x="0" y="0" fill="#fff" width="1223.7793855172185" height="361.44658622045336"></rect><rect x="1011.974245548613" y="142.1621751290577" fill="#000" width="112.07989501953125" height="25" opacity="1"></rect></mask><g transform="translate(1011.974245548613 142.1621751290577) rotate(0 55.09917145167685 39.700857467057176)"><text x="56.039947509765625" y="17.52" font-family="Virgil, Segoe UI Emoji" font-size="20px" fill="#1e1e1e" text-anchor="middle" style="white-space: pre;" direction="ltr" dominant-baseline="alphabetic">Accept Bet</text></g><g transform="translate(739.0978123150139 10) rotate(0 188.73007202148438 22.5)"><text x="0" y="31.536" font-family="Virgil, Segoe UI Emoji" font-size="36px" fill="#1e1e1e" text-anchor="start" style="white-space: pre;" direction="ltr" dominant-baseline="alphabetic">Game State Diagram</text></g><g transform="translate(585.1628949451679 63.96225044104085) rotate(0 344.2410583496094 11.553857844984122)"><text x="0" y="16.19388715553004" font-family="Virgil, Segoe UI Emoji" font-size="18.486172551974928px" fill="#1e1e1e" text-anchor="start" style="white-space: pre;" direction="ltr" dominant-baseline="alphabetic">Every arrow generates a regular event and an update on the state event</text></g></svg>