<svg version="1.1" xmlns="http://www.w3.org/2000/svg" viewBox="0 0 8368.714720931115 2745.5722516706865" width="8368.714720931115" height="2745.5722516706865">
  <!-- svg-source:excalidraw -->
  
  <defs>
    <style class="style-fonts">
      @font-face {
        font-family: "Virgil";
        src: url("https://excalidraw.com/Virgil.woff2");
      }
      @font-face {
        font-family: "Cascadia";
        src: url("https://excalidraw.com/Cascadia.woff2");
      }
      @font-face {
        font-family: "Assistant";
        src: url("https://excalidraw.com/Assistant-Regular.woff2");
      }
    </style>
    
  </defs>
  <rect x="0" y="0" width="8368.714720931115" height="2745.5722516706865" fill="#ffffff"></rect><g stroke-linecap="round" transform="translate(5710.513125829289 337.1889980777196) rotate(0 382.69699736478015 364.7930442716911)"><path d="M283.91 12.17 C305.95 0.37, 334.1 1.24, 359.54 -0.11 C384.97 -1.46, 411.08 0.44, 436.51 4.04 C461.95 7.65, 487.79 13.47, 512.14 21.51 C536.49 29.56, 560.62 39.46, 582.61 52.3 C604.6 65.14, 625.55 81.67, 644.09 98.55 C662.63 115.43, 678.98 133.85, 693.88 153.6 C708.78 173.35, 722.84 194.67, 733.48 217.06 C744.12 239.44, 752.34 263.82, 757.72 287.9 C763.1 311.99, 765.69 337.04, 765.78 361.58 C765.87 386.12, 763.19 411.34, 758.25 435.13 C753.31 458.91, 745.87 481.7, 736.14 504.29 C726.41 526.88, 714.52 550.25, 699.88 570.66 C685.24 591.08, 667.01 609.68, 648.27 626.78 C629.53 643.88, 608.86 660.07, 587.42 673.24 C565.99 686.41, 543.49 697.27, 519.67 705.81 C495.85 714.35, 469.87 720.7, 444.48 724.48 C419.09 728.27, 392.98 729.36, 367.32 728.54 C341.67 727.73, 315.4 725.25, 290.56 719.59 C265.73 713.93, 241.52 705.38, 218.31 694.58 C195.1 683.77, 171.72 669.73, 151.3 654.74 C130.88 639.74, 112.6 622.9, 95.79 604.59 C78.97 586.28, 63.19 566.07, 50.41 544.87 C37.62 523.68, 27.16 500.55, 19.09 477.42 C11.03 454.3, 4.78 430.39, 2.01 406.11 C-0.76 381.82, 0.16 356.26, 2.49 331.71 C4.82 307.15, 8.56 282.3, 16.01 258.78 C23.46 235.25, 34.72 212.05, 47.19 190.55 C59.65 169.05, 74.53 148.59, 90.81 129.78 C107.09 110.97, 124.73 92.84, 144.87 77.67 C165.02 62.5, 186.57 50.23, 211.68 38.74 C236.78 27.25, 279.26 12.84, 295.49 8.72 C311.71 4.61, 307.57 8.03, 309.05 14.04 M374.46 -0.15 C398.92 -6.72, 427.22 1.61, 452.33 6.05 C477.45 10.5, 501.68 17.3, 525.13 26.5 C548.58 35.71, 571.47 47.68, 593.06 61.27 C614.64 74.85, 636.42 90.96, 654.63 108.01 C672.84 125.06, 688.23 142.98, 702.3 163.56 C716.37 184.14, 729.61 208.29, 739.06 231.48 C748.51 254.67, 754.86 278.76, 759 302.69 C763.14 326.61, 764.44 350.66, 763.9 375.03 C763.36 399.4, 761.53 425.26, 755.75 448.92 C749.98 472.58, 739.99 495.03, 729.25 516.98 C718.51 538.92, 706.44 560.66, 691.31 580.61 C676.18 600.56, 657.63 620.26, 638.49 636.67 C619.34 653.07, 598.47 666.95, 576.45 679.04 C554.43 691.13, 530.89 701.41, 506.36 709.23 C481.84 717.05, 454.76 722.55, 429.3 725.96 C403.84 729.36, 379.27 731.48, 353.61 729.67 C327.94 727.86, 300.33 722.09, 275.3 715.11 C250.27 708.14, 225.9 699.07, 203.42 687.81 C180.93 676.55, 159.89 662.87, 140.4 647.54 C120.9 632.2, 102.52 614.68, 86.45 595.79 C70.38 576.9, 55.73 556.34, 43.98 534.2 C32.23 512.07, 23.05 486.8, 15.94 462.97 C8.83 439.15, 3.55 415.49, 1.31 391.25 C-0.92 367, -0.74 341.72, 2.54 317.51 C5.82 293.3, 12.67 269.07, 21 245.97 C29.33 222.87, 39.2 200.22, 52.51 178.91 C65.81 157.6, 83.21 136.4, 100.85 118.12 C118.49 99.83, 137.59 83.21, 158.35 69.2 C179.11 55.19, 202.28 44.05, 225.43 34.06 C248.57 24.08, 272.42 15.03, 297.2 9.27 C321.98 3.51, 361.22 -0.37, 374.1 -0.51 C386.98 -0.64, 374.56 2.18, 374.48 8.48" stroke="#1e1e1e" stroke-width="2" fill="none"></path></g><g transform="translate(5911.014834733328 646.0845535993094) rotate(0 182.087646484375 55.94985341590336)"><text x="182.087646484375" y="78.41931454773038" font-family="Virgil, Segoe UI Emoji" font-size="89.51976546544564px" fill="#1e1e1e" text-anchor="middle" style="white-space: pre;" direction="ltr" dominant-baseline="alphabetic">NORMAL</text></g><g stroke-linecap="round" transform="translate(5772.832872159311 2005.9861631273052) rotate(0 382.69699736478015 364.79304427169063)"><path d="M304.83 7.93 C327.46 -2.47, 356.47 0.32, 382.33 0.06 C408.19 -0.2, 434.76 1.38, 459.99 6.37 C485.21 11.37, 510.31 20.21, 533.68 30.04 C557.04 39.86, 579.08 51.54, 600.19 65.3 C621.31 79.06, 642.37 94.88, 660.36 112.59 C678.36 130.3, 694.59 150.63, 708.16 171.54 C721.73 192.46, 733.02 215.09, 741.8 238.09 C750.58 261.1, 756.94 285.61, 760.84 309.57 C764.74 333.52, 766.3 357.35, 765.19 381.8 C764.09 406.25, 760.8 432.37, 754.21 456.25 C747.62 480.14, 737.24 503.09, 725.65 525.14 C714.06 547.18, 700.15 569.13, 684.68 588.53 C669.21 607.92, 652.13 625.72, 632.83 641.49 C613.53 657.27, 591.39 671.45, 568.9 683.19 C546.42 694.94, 522.41 704.43, 497.92 711.97 C473.43 719.51, 447.44 725.68, 421.98 728.42 C396.53 731.17, 370.77 731.14, 345.18 728.44 C319.58 725.75, 292.89 719.76, 268.42 712.25 C243.95 704.75, 220.73 695.15, 198.36 683.4 C176 671.66, 153.84 657.59, 134.24 641.75 C114.64 625.92, 96.63 607.59, 80.75 588.41 C64.87 569.22, 50.22 548.57, 38.97 526.65 C27.72 504.73, 19.71 480.74, 13.24 456.87 C6.76 433, 1.43 407.99, 0.1 383.44 C-1.22 358.9, 1.19 333.79, 5.28 309.61 C9.36 285.43, 15.98 261.41, 24.61 238.36 C33.25 215.32, 43.55 192.12, 57.1 171.33 C70.65 150.54, 88.19 131.39, 105.93 113.64 C123.66 95.89, 142.73 78.81, 163.5 64.82 C184.26 50.82, 204.19 39.75, 230.54 29.69 C256.89 19.62, 303.55 7.76, 321.62 4.41 C339.69 1.05, 337.88 3.46, 338.97 9.55 M351.93 1.22 C375.39 -6.49, 403.07 0.19, 428.74 3.27 C454.4 6.34, 481.5 12.13, 505.92 19.67 C530.35 27.21, 553.12 36.04, 575.29 48.49 C597.46 60.95, 619.85 77.62, 638.95 94.4 C658.05 111.19, 674.95 129.7, 689.89 149.21 C704.84 168.71, 717.65 189.31, 728.62 211.43 C739.6 233.54, 749.76 258.24, 755.74 281.9 C761.72 305.56, 763.74 329.17, 764.51 353.37 C765.29 377.57, 764.72 402.75, 760.4 427.12 C756.07 451.48, 748.07 476.77, 738.58 499.58 C729.08 522.38, 717.36 543.74, 703.44 563.96 C689.52 584.18, 673.36 603.54, 655.06 620.87 C636.75 638.2, 614.98 654.02, 593.61 667.94 C572.23 681.85, 550.69 695.1, 526.8 704.37 C502.92 713.64, 475.92 719.35, 450.3 723.56 C424.67 727.78, 398.48 730.08, 373.05 729.66 C347.62 729.25, 322.39 726.36, 297.71 721.08 C273.04 715.81, 248.29 708.04, 225.02 698.02 C201.75 687.99, 178.79 675.76, 158.12 660.93 C137.45 646.09, 118.37 627.39, 100.98 609 C83.59 590.62, 67.23 571.49, 53.78 550.61 C40.33 529.72, 28.7 506.75, 20.28 483.68 C11.86 460.6, 6.65 436.37, 3.28 412.13 C-0.09 387.9, -2.03 362.94, 0.06 338.28 C2.15 313.62, 8.46 287.88, 15.82 264.16 C23.18 240.43, 32.38 217.25, 44.22 195.94 C56.06 174.63, 70.93 155.16, 86.87 136.31 C102.82 117.46, 120.29 98.66, 139.89 82.83 C159.49 67.01, 181.71 52.6, 204.47 41.37 C227.24 30.14, 252.06 22.06, 276.5 15.47 C300.94 8.88, 338.28 2.85, 351.12 1.83 C363.96 0.8, 352.59 3.19, 353.57 9.33" stroke="#1e1e1e" stroke-width="2" fill="none"></path></g><g transform="translate(5973.245073006709 2314.881718648895) rotate(0 182.17715454101562 55.94985341590336)"><text x="182.17715454101562" y="78.41931454773038" font-family="Virgil, Segoe UI Emoji" font-size="89.51976546544564px" fill="#1e1e1e" text-anchor="middle" style="white-space: pre;" direction="ltr" dominant-baseline="alphabetic">FREEZE</text></g><g stroke-linecap="round" transform="translate(7593.320726201558 1125.9301668701282) rotate(0 382.69699736478015 364.7930442716911)"><path d="M453.81 5.22 C479 3.74, 504.33 18.27, 527.87 27.72 C551.4 37.17, 573.64 48.49, 594.99 61.92 C616.34 75.34, 637.68 90.85, 655.98 108.28 C674.28 125.7, 690.85 145.78, 704.78 166.48 C718.71 187.18, 730.39 209.62, 739.56 232.48 C748.74 255.34, 755.51 279.75, 759.83 303.64 C764.14 327.53, 766.14 351.34, 765.45 375.8 C764.77 400.27, 761.91 426.44, 755.73 450.43 C749.55 474.42, 739.58 497.5, 728.37 519.72 C717.16 541.94, 703.62 564.11, 688.49 583.75 C673.36 603.38, 656.59 621.46, 637.57 637.54 C618.55 653.62, 596.66 668.13, 574.38 680.23 C552.11 692.33, 528.27 702.2, 503.91 710.12 C479.56 718.04, 453.65 724.61, 428.24 727.76 C402.83 730.9, 377.08 731.29, 351.45 728.99 C325.81 726.7, 299.04 721.11, 274.45 713.99 C249.86 706.87, 226.46 697.66, 203.9 686.27 C181.33 674.87, 158.93 661.15, 139.06 645.62 C119.18 630.1, 100.86 612.05, 84.65 593.12 C68.44 574.18, 53.43 553.76, 41.8 532.02 C30.17 510.27, 21.76 486.43, 14.87 462.67 C7.99 438.91, 2.23 413.96, 0.48 389.44 C-1.27 364.92, 0.72 339.79, 4.38 315.55 C8.05 291.31, 14.24 267.19, 22.48 244.01 C30.72 220.83, 40.63 197.45, 53.82 176.45 C67.01 155.46, 84.21 136.06, 101.63 118.03 C119.05 100, 137.84 82.61, 158.36 68.29 C178.89 53.97, 201.33 42.06, 224.78 32.11 C248.22 22.15, 273.87 13.92, 299.05 8.55 C324.23 3.18, 348.72 -0.03, 375.86 -0.12 C403 -0.21, 446.55 5.12, 461.86 8.03 C477.18 10.94, 469.15 11.49, 467.77 17.34 M393.96 0.56 C418.62 -5.05, 444.66 2.59, 469.66 8.29 C494.66 13.99, 520.67 24.04, 543.97 34.75 C567.27 45.46, 589.11 58.19, 609.45 72.55 C629.79 86.91, 648.67 102.8, 666.01 120.91 C683.36 139.02, 700.46 160.26, 713.53 181.22 C726.6 202.18, 736.14 223.73, 744.43 246.65 C752.72 269.57, 759.95 294.18, 763.26 318.73 C766.57 343.28, 766.33 369.51, 764.27 393.96 C762.21 418.41, 757.9 442.18, 750.91 465.43 C743.93 488.68, 734.52 511.84, 722.36 533.47 C710.21 555.11, 694.25 575.93, 677.99 595.24 C661.74 614.55, 644.83 633.81, 624.82 649.35 C604.8 664.89, 581.08 677.38, 557.92 688.48 C534.76 699.58, 510.34 709.15, 485.88 715.95 C461.41 722.75, 436.38 727.32, 411.13 729.3 C385.88 731.28, 359.74 730.86, 334.38 727.83 C309.02 724.79, 283.15 719.5, 258.95 711.11 C234.74 702.72, 211.36 690.25, 189.15 677.51 C166.94 664.76, 145.04 650.91, 125.67 634.62 C106.31 618.33, 88.14 599.48, 72.96 579.77 C57.78 560.06, 45.3 538.6, 34.59 516.37 C23.89 494.14, 14.24 470.5, 8.72 446.39 C3.2 422.28, 1.68 396.35, 1.47 371.71 C1.26 347.07, 2.83 322.2, 7.45 298.54 C12.07 274.88, 19.82 252.29, 29.19 229.75 C38.55 207.21, 49.71 184, 63.65 163.3 C77.59 142.6, 94.56 122.65, 112.81 105.56 C131.06 88.46, 151.9 73.95, 173.15 60.75 C194.41 47.55, 216.41 35.4, 240.33 26.35 C264.24 17.31, 290.91 10.64, 316.67 6.47 C342.44 2.3, 381.9 1.33, 394.9 1.34 C407.9 1.35, 395.12 0.5, 394.66 6.51" stroke="#1e1e1e" stroke-width="2" fill="none"></path></g><g transform="translate(7840.854661668095 1434.825722391718) rotate(0 135.055419921875 55.94985341590336)"><text x="135.055419921875" y="78.41931454773038" font-family="Virgil, Segoe UI Emoji" font-size="89.51976546544564px" fill="#1e1e1e" text-anchor="middle" style="white-space: pre;" direction="ltr" dominant-baseline="alphabetic">FINAL</text></g><g stroke-linecap="round" transform="translate(1044.5085136488206 1252.5750521122618) rotate(0 382.69699736478015 364.7930442716911)"><path d="M198.85 44.66 C217.3 28.11, 246.75 22.52, 271.59 15.36 C296.43 8.2, 322.35 3.83, 347.88 1.71 C373.41 -0.42, 399.41 -0.12, 424.76 2.6 C450.12 5.33, 475.6 10.79, 500.02 18.06 C524.44 25.33, 548.75 34.17, 571.27 46.22 C593.79 58.26, 615.96 74.06, 635.12 90.33 C654.29 106.6, 671.03 124.33, 686.28 143.85 C701.53 163.38, 715.28 185.42, 726.63 207.49 C737.99 229.57, 747.98 252.76, 754.39 276.31 C760.8 299.86, 764.04 324.52, 765.09 348.81 C766.15 373.11, 764.79 397.73, 760.71 422.08 C756.63 446.43, 749.63 471.76, 740.61 494.89 C731.59 518.01, 720.39 540.4, 706.6 560.82 C692.8 581.25, 675.63 600.02, 657.84 617.42 C640.05 634.82, 620.92 651.3, 599.84 665.23 C578.76 679.16, 555.11 691.43, 531.33 700.99 C507.56 710.56, 482.53 717.73, 457.21 722.63 C431.88 727.52, 404.97 730.51, 379.38 730.36 C353.78 730.21, 328.78 727.02, 303.66 721.73 C278.54 716.44, 252.16 708.53, 228.65 698.6 C205.14 688.68, 183.32 676.29, 162.59 662.17 C141.86 648.05, 122.05 631.85, 104.25 613.89 C86.45 595.94, 69.22 575.32, 55.81 554.45 C42.39 533.58, 32.42 511.68, 23.75 488.67 C15.08 465.66, 7.78 440.61, 3.8 416.4 C-0.18 392.2, -1.66 367.78, -0.13 343.43 C1.4 319.09, 6.25 294.02, 13 270.35 C19.75 246.69, 28.82 223.24, 40.38 201.43 C51.94 179.62, 66.51 158.6, 82.37 139.51 C98.22 120.41, 112.3 104.52, 135.52 86.86 C158.73 69.2, 203.08 42.89, 221.68 33.53 C240.27 24.18, 244.37 25.09, 247.09 30.73 M436.11 4.52 C461.12 2.27, 486.3 14.23, 510.18 22.24 C534.06 30.25, 557.24 40.01, 579.4 52.58 C601.56 65.15, 624.17 81.22, 643.12 97.67 C662.07 114.13, 678.1 131.67, 693.1 151.3 C708.1 170.94, 722.55 192.86, 733.12 215.49 C743.69 238.11, 751.08 263.09, 756.55 287.04 C762.02 311, 765.43 335.01, 765.93 359.22 C766.42 383.44, 764.53 408.31, 759.5 432.32 C754.47 456.33, 745.52 480.28, 735.73 503.28 C725.95 526.29, 715.24 549.96, 700.79 570.36 C686.34 590.75, 667.76 608.75, 649.02 625.68 C630.28 642.61, 609.74 658.56, 588.37 671.92 C567.01 685.28, 544.43 696.84, 520.83 705.83 C497.23 714.83, 472.02 721.73, 446.79 725.89 C421.56 730.05, 395.05 732.1, 369.46 730.78 C343.87 729.46, 318.31 724.07, 293.25 717.98 C268.19 711.89, 242.66 704.56, 219.09 694.25 C195.53 683.93, 172.43 670.76, 151.88 656.1 C131.32 641.43, 112.81 624.59, 95.77 606.28 C78.74 587.96, 62.21 567.68, 49.66 546.19 C37.11 524.7, 28.15 500.76, 20.5 477.33 C12.86 453.91, 6.71 429.54, 3.79 405.65 C0.87 381.76, 0.95 358.18, 2.98 333.97 C5.01 309.75, 8.86 284.1, 15.97 260.35 C23.07 236.6, 33.4 212.86, 45.61 191.47 C57.81 170.08, 72.95 150.59, 89.19 132.02 C105.42 113.45, 122.89 95.31, 143.03 80.04 C163.17 64.77, 186.65 51.39, 210.03 40.4 C233.4 29.41, 258.34 20.86, 283.27 14.1 C308.21 7.34, 334.28 1.46, 359.63 -0.17 C384.97 -1.8, 422.88 2.69, 435.37 4.31 C447.85 5.93, 435.52 3.63, 434.53 9.55" stroke="#1e1e1e" stroke-width="2" fill="none"></path></g><g transform="translate(1272.2181998477818 1561.4706076338516) rotate(0 154.87966918945312 55.94985341590336)"><text x="154.87966918945312" y="78.41931454773038" font-family="Virgil, Segoe UI Emoji" font-size="89.51976546544564px" fill="#1e1e1e" text-anchor="middle" style="white-space: pre;" direction="ltr" dominant-baseline="alphabetic">SETUP</text></g><g stroke-linecap="round" transform="translate(2673.518194092366 1247.999182223376) rotate(0 382.69699736478015 364.7930442716911)"><path d="M418.79 1.65 C443.62 -1.98, 469.83 8.99, 494.24 16.16 C518.64 23.32, 542.66 33.23, 565.21 44.67 C587.75 56.11, 609.71 69.02, 629.51 84.79 C649.31 100.56, 668.3 119.89, 684.02 139.29 C699.75 158.69, 712.62 179.26, 723.84 201.19 C735.05 223.12, 744.43 247.21, 751.32 270.86 C758.21 294.52, 763.48 318.88, 765.18 343.12 C766.89 367.36, 765.26 392.26, 761.56 416.32 C757.86 440.39, 751.68 464.32, 742.99 487.53 C734.3 510.75, 722.73 534.47, 709.43 555.6 C696.14 576.73, 680.8 596.66, 663.24 614.31 C645.68 631.96, 624.97 647.53, 604.07 661.49 C583.18 675.45, 561.26 688.12, 537.86 698.09 C514.47 708.05, 488.89 716.04, 463.69 721.28 C438.49 726.52, 412.47 729.14, 386.66 729.52 C360.85 729.9, 333.93 728.24, 308.82 723.57 C283.71 718.91, 259.68 711.17, 235.98 701.54 C212.28 691.92, 187.82 679.74, 166.62 665.85 C145.41 651.95, 126.38 635.74, 108.74 618.18 C91.11 600.62, 74.83 581.2, 60.8 560.47 C46.76 539.74, 33.67 516.66, 24.52 493.79 C15.38 470.92, 9.98 447.4, 5.92 423.25 C1.86 399.1, -0.62 373.34, 0.15 348.9 C0.92 324.46, 4.31 300.27, 10.55 276.61 C16.79 252.95, 26.36 229.04, 37.57 206.94 C48.79 184.85, 62.24 163.45, 77.84 144.04 C93.44 124.63, 111.87 106.45, 131.18 90.48 C150.49 74.5, 171.42 60.38, 193.69 48.2 C215.96 36.02, 240.35 25.19, 264.81 17.4 C289.27 9.61, 313.55 3.91, 340.47 1.46 C367.38 -0.99, 410.82 1.25, 426.3 2.7 C441.77 4.15, 434.26 4.13, 433.34 10.17 M509.85 21.11 C535.11 23.22, 559.58 40.98, 581.64 53.5 C603.7 66.02, 623.33 79.86, 642.2 96.24 C661.08 112.62, 679.83 131.61, 694.89 151.78 C709.95 171.96, 722.18 194.89, 732.56 217.31 C742.93 239.73, 751.53 262.66, 757.15 286.32 C762.78 309.97, 766.19 334.78, 766.3 359.22 C766.41 383.66, 762.67 408.57, 757.83 432.98 C752.99 457.4, 747.19 483, 737.28 505.74 C727.38 528.47, 713.19 549.3, 698.41 569.38 C683.64 589.47, 666.79 609.04, 648.64 626.25 C630.49 643.46, 610.77 659.28, 589.51 672.67 C568.25 686.06, 544.93 697.67, 521.06 706.58 C497.2 715.49, 471.56 722.53, 446.3 726.12 C421.03 729.72, 395.27 729.37, 369.49 728.16 C343.72 726.95, 316.92 724.52, 291.63 718.85 C266.34 713.17, 240.96 704.56, 217.73 694.11 C194.5 683.66, 172.8 670.85, 152.26 656.15 C131.71 641.44, 111.2 624.51, 94.45 605.88 C77.71 587.26, 64.14 565.82, 51.77 544.39 C39.4 522.97, 28.22 500.18, 20.25 477.34 C12.29 454.5, 7.1 431.5, 3.97 407.35 C0.83 383.2, -0.59 357.1, 1.44 332.42 C3.48 307.74, 8.73 282.55, 16.16 259.28 C23.59 236.01, 34.06 214.12, 46.02 192.79 C57.98 171.45, 71.38 150.08, 87.91 131.29 C104.45 112.49, 124.64 95.15, 145.22 80.01 C165.81 64.88, 188.35 51.83, 211.43 40.48 C234.5 29.12, 259.18 18.36, 283.68 11.87 C308.18 5.38, 333.04 3.12, 358.43 1.54 C383.82 -0.04, 410.71 -0.93, 436.03 2.38 C461.36 5.68, 498.04 16.89, 510.38 21.37 C522.71 25.85, 511.79 23.42, 510.02 29.23" stroke="#1e1e1e" stroke-width="2" fill="none"></path></g><g transform="translate(2875.7203882258973 1556.8947377449658) rotate(0 180.3871612548828 55.94985341590336)"><text x="180.3871612548828" y="78.41931454773038" font-family="Virgil, Segoe UI Emoji" font-size="89.51976546544564px" fill="#1e1e1e" text-anchor="middle" style="white-space: pre;" direction="ltr" dominant-baseline="alphabetic">CLOSED</text></g><g stroke-linecap="round" transform="translate(4175.281813358829 1217.9378272785725) rotate(0 382.69699736478015 364.7930442716911)"><path d="M403.82 1.04 C428.5 -3.86, 455.65 4.83, 480.64 11.08 C505.63 17.33, 530.95 27.46, 553.77 38.52 C576.58 49.59, 597.6 62.37, 617.53 77.5 C637.45 92.63, 656.45 110.64, 673.3 129.3 C690.16 147.97, 706.14 168.22, 718.66 189.49 C731.18 210.75, 740.91 233.68, 748.43 256.91 C755.96 280.14, 761.32 304.32, 763.8 328.86 C766.28 353.41, 765.96 379.59, 763.32 404.17 C760.69 428.75, 755.85 453.25, 748 476.32 C740.15 499.39, 728.77 521.45, 716.24 542.59 C703.72 563.73, 689.56 584.54, 672.85 603.14 C656.13 621.74, 636.44 639.2, 615.96 654.18 C595.48 669.16, 573.23 682.18, 549.99 693.01 C526.74 703.84, 501.31 713.09, 476.51 719.15 C451.71 725.22, 426.83 728.44, 401.17 729.39 C375.51 730.33, 347.9 728.74, 322.54 724.82 C297.19 720.9, 272.84 714.46, 249.03 705.87 C225.22 697.28, 201.67 686.41, 179.69 673.28 C157.71 660.15, 135.69 644.05, 117.16 627.1 C98.63 610.15, 83.01 591.75, 68.51 571.6 C54 551.46, 40.43 528.75, 30.13 506.23 C19.83 483.71, 11.71 460.38, 6.69 436.47 C1.67 412.57, -0.21 387.29, 0.03 362.79 C0.28 338.3, 2.79 313.36, 8.16 289.49 C13.52 265.63, 21.99 241.89, 32.21 219.58 C42.43 197.28, 54.77 175.8, 69.47 155.67 C84.18 135.55, 101.71 115.86, 120.44 98.84 C139.17 81.81, 159.96 66.26, 181.86 53.53 C203.75 40.8, 227.65 30.8, 251.81 22.47 C275.96 14.15, 298.21 6.91, 326.81 3.58 C355.42 0.26, 403.88 1.2, 423.43 2.54 C442.98 3.88, 444.54 5.79, 444.13 11.63 M374.09 -1 C398.4 -7.7, 427.42 0.39, 452.8 5.08 C478.19 9.78, 502.64 17.92, 526.4 27.16 C550.16 36.4, 573.85 47.2, 595.37 60.5 C616.89 73.81, 637.65 89.63, 655.52 106.99 C673.39 124.35, 688.53 143.77, 702.59 164.66 C716.64 185.54, 730.49 209.4, 739.83 232.3 C749.18 255.2, 754.61 278.1, 758.65 302.04 C762.7 325.98, 764.64 351.34, 764.11 375.93 C763.58 400.53, 761.04 425.63, 755.47 449.63 C749.91 473.64, 741.46 497.64, 730.73 519.96 C720 542.28, 706.31 564.29, 691.08 583.55 C675.86 602.8, 658.63 619.43, 639.38 635.47 C620.12 651.52, 598.11 667.36, 575.56 679.84 C553.01 692.33, 528.46 702.52, 504.09 710.39 C479.72 718.25, 454.85 724.02, 429.31 727.04 C403.78 730.06, 376.25 730.71, 350.87 728.49 C325.49 726.26, 301.33 720.7, 277.05 713.69 C252.76 706.67, 227.85 697.41, 205.17 686.39 C182.49 675.38, 161 663, 140.95 647.61 C120.9 632.21, 101.27 613.38, 84.88 594.04 C68.5 574.7, 54.38 553.13, 42.64 531.56 C30.9 509.98, 21.64 487.92, 14.46 464.57 C7.29 441.22, 1.39 415.9, -0.39 391.45 C-2.17 367.01, -0.06 342.09, 3.78 317.91 C7.62 293.73, 14.06 269.79, 22.64 246.36 C31.22 222.93, 42.43 198.42, 55.28 177.32 C68.14 156.22, 82.7 137.9, 99.77 119.77 C116.84 101.65, 137.03 83.06, 157.7 68.56 C178.36 54.07, 200.15 42.51, 223.76 32.79 C247.37 23.07, 273.95 15.57, 299.36 10.24 C324.77 4.91, 363.45 1.46, 376.21 0.8 C388.97 0.15, 375.79 0.58, 375.93 6.3" stroke="#1e1e1e" stroke-width="2" fill="none"></path></g><g transform="translate(4363.745772018728 1526.8333828001623) rotate(0 194.12539672851562 55.94985341590336)"><text x="194.12539672851562" y="78.41931454773038" font-family="Virgil, Segoe UI Emoji" font-size="89.51976546544564px" fill="#1e1e1e" text-anchor="middle" style="white-space: pre;" direction="ltr" dominant-baseline="alphabetic">INITIAL</text></g><g mask="url(#mask-65WnZilWtTZ0RdmZqXq4F)" stroke-linecap="round"><g transform="translate(1824.1125464961415 1595.0010277062402) rotate(0 413.5361629144445 -4.547473508864641e-13)"><path d="M0.52 -0.08 C138.44 -0.11, 690.09 0.13, 827.65 0.32 M-0.66 -1.17 C137.13 -1.61, 688.87 -1.72, 827 -1.63" stroke="#1e1e1e" stroke-width="2" fill="none"></path></g><g transform="translate(1824.1125464961415 1595.0010277062402) rotate(0 413.5361629144445 -4.547473508864641e-13)"><path d="M803.51 6.91 C810.65 5.11, 818.62 -0.5, 827 -1.63 M803.51 6.91 C812.76 2.83, 822.65 0.91, 827 -1.63" stroke="#1e1e1e" stroke-width="2" fill="none"></path></g><g transform="translate(1824.1125464961415 1595.0010277062402) rotate(0 413.5361629144445 -4.547473508864641e-13)"><path d="M803.51 -10.19 C810.72 -6.67, 818.69 -6.97, 827 -1.63 M803.51 -10.19 C812.85 -7.59, 822.73 -2.82, 827 -1.63" stroke="#1e1e1e" stroke-width="2" fill="none"></path></g></g><mask id="mask-65WnZilWtTZ0RdmZqXq4F"><rect x="0" y="0" fill="#fff" width="2751.1848723250305" height="1695.001027706241"></rect><rect x="2123.4915209950595" y="1539.0511742903354" fill="#000" width="228.3143768310547" height="111.89970683180705" opacity="1"></rect></mask><g transform="translate(2123.4915209950577 1539.0511742903354) rotate(0 114.11167096403005 55.280330361960296)"><text x="114.15718841552734" y="78.41931454773038" font-family="Virgil, Segoe UI Emoji" font-size="89.51976546544564px" fill="#1e1e1e" text-anchor="middle" style="white-space: pre;" direction="ltr" dominant-baseline="alphabetic">Close</text></g><g mask="url(#mask-TRwKDzmKjkWoDUyWeXbMG)" stroke-linecap="round"><g transform="translate(4933.102485023382 1836.1284021483225) rotate(0 411.58163683929433 196.49703952327673)"><path d="M0.32 -1.2 C137.71 64.3, 687.28 327.85, 824.25 393.57 M-0.97 0.79 C136.36 65.88, 686.3 326.13, 823.88 391.75" stroke="#1e1e1e" stroke-width="2" fill="none"></path></g><g transform="translate(4933.102485023382 1836.1284021483225) rotate(0 411.58163683929433 196.49703952327673)"><path d="M798.99 389.4 C804.31 391.84, 814.57 389.01, 823.88 391.75 M798.99 389.4 C807.2 390.15, 814.52 390.34, 823.88 391.75" stroke="#1e1e1e" stroke-width="2" fill="none"></path></g><g transform="translate(4933.102485023382 1836.1284021483225) rotate(0 411.58163683929433 196.49703952327673)"><path d="M806.33 373.95 C809.56 380.95, 817.67 382.65, 823.88 391.75 M806.33 373.95 C812.1 379.57, 817.14 384.57, 823.88 391.75" stroke="#1e1e1e" stroke-width="2" fill="none"></path></g></g><mask id="mask-TRwKDzmKjkWoDUyWeXbMG"><rect x="0" y="0" fill="#fff" width="5856.265758701969" height="2329.1224811948755"></rect><rect x="5014.4740388548635" y="1920.7257348397925" fill="#000" width="660.420166015625" height="223.7994136636141" opacity="1"></rect></mask><g mask="url(#mask-SUUv0uuMROrYVDfx61ewq)" stroke-linecap="round"><g transform="translate(6398.864185251062 1995.4503260861102) rotate(0 74.35023117096989 -485.93186801026286)"><path d="M1.09 0.58 C30.08 -83.29, 179.03 -342.47, 174.23 -504.38 C169.44 -666.29, 5.68 -893.02, -27.69 -970.89 M0.2 -0.17 C29.52 -83.71, 180.67 -340.68, 176.41 -502.77 C172.14 -664.87, 8.25 -894.78, -25.39 -972.72" stroke="#1e1e1e" stroke-width="2" fill="none"></path></g><g transform="translate(6398.864185251062 1995.4503260861102) rotate(0 74.35023117096989 -485.93186801026286)"><path d="M-6.61 -956.22 C-11.62 -963.14, -18.49 -968.72, -25.39 -972.72 M-6.61 -956.22 C-13.8 -962.79, -20.83 -969.51, -25.39 -972.72" stroke="#1e1e1e" stroke-width="2" fill="none"></path></g><g transform="translate(6398.864185251062 1995.4503260861102) rotate(0 74.35023117096989 -485.93186801026286)"><path d="M-21.61 -948 C-21.63 -957.74, -23.6 -966.01, -25.39 -972.72 M-21.61 -948 C-23.11 -957.75, -24.42 -967.59, -25.39 -972.72" stroke="#1e1e1e" stroke-width="2" fill="none"></path></g></g><mask id="mask-SUUv0uuMROrYVDfx61ewq"><rect x="0" y="0" fill="#fff" width="6700.671955572265" height="3067.3140621066364"></rect><rect x="6364.956924629509" y="1434.9810468672013" fill="#000" width="418.32275390625" height="111.89970683180705" opacity="1"></rect></mask><g mask="url(#mask-OD_Z1JCGeBvXBdrt8wpqQ)" stroke-linecap="round"><g transform="translate(5804.062335883312 991.7222052780271) rotate(0 -37.17511558548449 549.6606375853808)"><path d="M-1.02 0.14 C-23.52 87.83, -143.9 343.5, -133.9 526.74 C-123.9 709.98, 26.93 1004.22, 58.99 1099.58 M0.64 -0.84 C-21.6 86.49, -141.43 341.48, -131.78 525.13 C-122.14 708.78, 26.77 1005.25, 58.53 1101.04" stroke="#1e1e1e" stroke-width="2" fill="none"></path></g><g transform="translate(5804.062335883312 991.7222052780271) rotate(0 -37.17511558548449 549.6606375853808)"><path d="M41.8 1082.46 C48.66 1087.97, 56.6 1098.08, 58.53 1101.04 M41.8 1082.46 C47.38 1087.75, 52.66 1095.22, 58.53 1101.04" stroke="#1e1e1e" stroke-width="2" fill="none"></path></g><g transform="translate(5804.062335883312 991.7222052780271) rotate(0 -37.17511558548449 549.6606375853808)"><path d="M57.66 1076.05 C58.35 1083.94, 60.09 1096.55, 58.53 1101.04 M57.66 1076.05 C58.14 1083.35, 58.31 1092.89, 58.53 1101.04" stroke="#1e1e1e" stroke-width="2" fill="none"></path></g></g><mask id="mask-OD_Z1JCGeBvXBdrt8wpqQ"><rect x="0" y="0" fill="#fff" width="6095.248644608661" height="2191.043480448788"></rect><rect x="5181.416044694917" y="1405.584847440935" fill="#000" width="979.7560424804688" height="223.7994136636141" opacity="1"></rect></mask><g transform="translate(6364.956924629507 1434.9810468672022) rotate(0 108.31239273972824 74.39987814516235)"><text x="209.161376953125" y="78.41931454773038" font-family="Virgil, Segoe UI Emoji" font-size="89.51976546544564px" fill="#1e1e1e" text-anchor="middle" style="white-space: pre;" direction="ltr" dominant-baseline="alphabetic">nextBlock</text></g><g transform="translate(5014.474038854865 1920.7257348397925) rotate(0 330.2704066300057 111.58876309716106)"><text x="330.2100830078125" y="78.41931454773038" font-family="Virgil, Segoe UI Emoji" font-size="89.51976546544564px" fill="#1e1e1e" text-anchor="middle" style="white-space: pre;" direction="ltr" dominant-baseline="alphabetic">First Block - </text><text x="330.2100830078125" y="190.31902137953745" font-family="Virgil, Segoe UI Emoji" font-size="89.51976546544564px" fill="#1e1e1e" text-anchor="middle" style="white-space: pre;" direction="ltr" dominant-baseline="alphabetic">freezeDuration</text></g><g mask="url(#mask-EJbozltD1XfvE9iAbepzZ)" stroke-linecap="round"><g transform="translate(6600.671955572258 2287.540519972057) rotate(0 485.9318680102642 -297.40092468387775)"><path d="M0.58 0.26 C162.75 -99.1, 810.01 -495.87, 971.93 -595.19 M-0.58 -0.65 C161.54 -99.92, 809.01 -494.83, 971.01 -593.86" stroke="#1e1e1e" stroke-width="2" fill="none"></path></g><g transform="translate(6600.671955572258 2287.540519972057) rotate(0 485.9318680102642 -297.40092468387775)"><path d="M955.42 -574.32 C958.9 -578.31, 961.02 -582.05, 971.01 -593.86 M955.42 -574.32 C959.63 -578.17, 962.26 -584.01, 971.01 -593.86" stroke="#1e1e1e" stroke-width="2" fill="none"></path></g><g transform="translate(6600.671955572258 2287.540519972057) rotate(0 485.9318680102642 -297.40092468387775)"><path d="M946.51 -588.92 C951.94 -589.94, 955.89 -590.69, 971.01 -593.86 M946.51 -588.92 C952.74 -589.54, 957.38 -592.08, 971.01 -593.86" stroke="#1e1e1e" stroke-width="2" fill="none"></path></g></g><mask id="mask-EJbozltD1XfvE9iAbepzZ"><rect x="0" y="0" fill="#fff" width="7672.535691592786" height="2982.342369339813"></rect><rect x="6879.187685887211" y="1934.1897418722765" fill="#000" width="414.832275390625" height="111.89970683180705" opacity="1"></rect></mask><g transform="translate(6879.187685887209 1934.1897418722747) rotate(0 207.15667053457764 55.88489814561308)"><text x="207.4161376953125" y="78.41931454773038" font-family="Virgil, Segoe UI Emoji" font-size="89.51976546544564px" fill="#1e1e1e" text-anchor="middle" style="white-space: pre;" direction="ltr" dominant-baseline="alphabetic">finalBlock</text></g><g transform="translate(5181.416044694919 1405.584847440935) rotate(0 584.897579765272 136.23667689194872)"><text x="489.8780212402344" y="78.41931454773038" font-family="Virgil, Segoe UI Emoji" font-size="89.51976546544564px" fill="#1e1e1e" text-anchor="middle" style="white-space: pre;" direction="ltr" dominant-baseline="alphabetic">nextFreeze (nextBlock</text><text x="489.8780212402344" y="190.31902137953745" font-family="Virgil, Segoe UI Emoji" font-size="89.51976546544564px" fill="#1e1e1e" text-anchor="middle" style="white-space: pre;" direction="ltr" dominant-baseline="alphabetic">- freezeDuration)</text></g><g mask="url(#mask-UE4YIZ5zJhWRbvABw36FP)" stroke-linecap="round"><g transform="translate(11.115466110771195 1592.0615840700793) rotate(0 500.9318680102633 -12.977326177910072)"><path d="M0.23 -0.89 C167.21 -5, 834.88 -21.01, 1001.96 -25.05 M-1.12 1.26 C165.71 -3.15, 833.81 -21.98, 1001.06 -26.69" stroke="#1e1e1e" stroke-width="2" fill="none"></path></g><g transform="translate(11.115466110771195 1592.0615840700793) rotate(0 500.9318680102633 -12.977326177910072)"><path d="M977.82 -17.49 C983.46 -20.18, 993.55 -21.74, 1001.06 -26.69 M977.82 -17.49 C987.34 -21.27, 995.38 -24.22, 1001.06 -26.69" stroke="#1e1e1e" stroke-width="2" fill="none"></path></g><g transform="translate(11.115466110771195 1592.0615840700793) rotate(0 500.9318680102633 -12.977326177910072)"><path d="M977.34 -34.58 C983.07 -32.06, 993.31 -28.4, 1001.06 -26.69 M977.34 -34.58 C987.01 -32.07, 995.22 -28.74, 1001.06 -26.69" stroke="#1e1e1e" stroke-width="2" fill="none"></path></g></g><mask id="mask-UE4YIZ5zJhWRbvABw36FP"><rect x="0" y="0" fill="#fff" width="1112.9792021312978" height="1718.0162364258995"></rect><rect x="387.59765760736354" y="1523.1344044762664" fill="#000" width="248.89935302734375" height="111.89970683180705" opacity="1"></rect></mask><g transform="translate(387.59765760736445 1523.1344044762645) rotate(0 123.93980767485164 56.207986254277785)"><text x="124.44967651367188" y="78.41931454773038" font-family="Virgil, Segoe UI Emoji" font-size="89.51976546544564px" fill="#1e1e1e" text-anchor="middle" style="white-space: pre;" direction="ltr" dominant-baseline="alphabetic">Setup</text></g><g mask="url(#mask-VWGj5dbdXUHiDuI3wHCrN)" stroke-linecap="round"><g transform="translate(1248.996883548335 1978.0397392957766) rotate(0 193.8416741243127 111.52534675645211)"><path d="M0.91 0.84 C30.4 37.97, 111.76 222.78, 176.07 222.83 C240.38 222.88, 351.63 38.2, 386.79 1.15 M-0.08 0.24 C29.41 37.54, 110.67 224.39, 175.55 224.25 C240.43 224.11, 353.99 37.08, 389.21 -0.59" stroke="#1e1e1e" stroke-width="2" fill="none"></path></g><g transform="translate(1248.996883548335 1978.0397392957766) rotate(0 193.8416741243127 111.52534675645211)"><path d="M381.83 23.29 C384.88 19.2, 384.78 10.96, 389.21 -0.59 M381.83 23.29 C384.75 14.19, 387.76 4, 389.21 -0.59" stroke="#1e1e1e" stroke-width="2" fill="none"></path></g><g transform="translate(1248.996883548335 1978.0397392957766) rotate(0 193.8416741243127 111.52534675645211)"><path d="M368.2 12.96 C374.34 11.1, 377.31 5.19, 389.21 -0.59 M368.2 12.96 C376.46 7.88, 384.86 1.78, 389.21 -0.59" stroke="#1e1e1e" stroke-width="2" fill="none"></path></g></g><mask id="mask-VWGj5dbdXUHiDuI3wHCrN"><rect x="0" y="0" fill="#fff" width="1736.6802317969614" height="2301.0904328086804"></rect><rect x="1186.8523945332272" y="2145.140579392777" fill="#000" width="474.7972106933594" height="111.89970683180705" opacity="1"></rect></mask><g transform="translate(1186.8523945332272 2145.140579392777) rotate(0 256.7132538607857 -55.269126564835915)"><text x="237.3986053466797" y="78.41931454773038" font-family="Virgil, Segoe UI Emoji" font-size="89.51976546544564px" fill="#1e1e1e" text-anchor="middle" style="white-space: pre;" direction="ltr" dominant-baseline="alphabetic">Sell Ticket</text></g><g mask="url(#mask-AyfER8Lyg7bSDRtV0Z3cb)" stroke-linecap="round"><g transform="translate(1179.9573831752941 1207.9837735964502) rotate(0 254.91507830046612 -119.49144295334327)"><path d="M-0.22 -0.89 C43.2 -40.98, 176.28 -239.79, 261.37 -239.67 C346.47 -239.55, 468.88 -40.1, 510.36 -0.16 M-1.79 1.25 C41.5 -38.76, 175.75 -238.46, 261.03 -238.49 C346.31 -238.52, 468.25 -38.85, 509.88 1.07" stroke="#1e1e1e" stroke-width="2" fill="none"></path></g><g transform="translate(1179.9573831752941 1207.9837735964502) rotate(0 254.91507830046612 -119.49144295334327)"><path d="M488.47 -11.84 C494.99 -5.1, 503.27 -1.35, 509.88 1.07 M488.47 -11.84 C494.29 -7.35, 501.68 -4.24, 509.88 1.07" stroke="#1e1e1e" stroke-width="2" fill="none"></path></g><g transform="translate(1179.9573831752941 1207.9837735964502) rotate(0 254.91507830046612 -119.49144295334327)"><path d="M501.77 -22.58 C503.45 -11.89, 506.79 -4.16, 509.88 1.07 M501.77 -22.58 C503.83 -15.02, 507.4 -8.84, 509.88 1.07" stroke="#1e1e1e" stroke-width="2" fill="none"></path></g></g><mask id="mask-AyfER8Lyg7bSDRtV0Z3cb"><rect x="0" y="0" fill="#fff" width="1789.7875397762266" height="1546.9666595031372"></rect><rect x="1189.4043226447793" y="913.0510342738598" fill="#000" width="501.5577392578125" height="111.89970683180705" opacity="1"></rect></mask><g transform="translate(1189.4043226447811 913.0510342738608) rotate(0 244.83791020421995 175.72303201993145)"><text x="250.77886962890625" y="78.41931454773038" font-family="Virgil, Segoe UI Emoji" font-size="89.51976546544564px" fill="#1e1e1e" text-anchor="middle" style="white-space: pre;" direction="ltr" dominant-baseline="alphabetic">Accept Bet</text></g><g mask="url(#mask-rFyP-pQs6k9GFC8-a5ljK)" stroke-linecap="round"><g transform="translate(2776.935974396637 1244.590732707541) rotate(0 254.91507830046612 -119.49144295334327)"><path d="M-0.69 0.53 C42.81 -39.41, 174.99 -238.37, 260.06 -238.53 C345.14 -238.69, 467.98 -40.36, 509.77 -0.43 M1.15 -0.23 C44.55 -40.04, 174.39 -240.56, 259.03 -240.41 C343.67 -240.26, 466.89 -39.26, 508.97 0.66" stroke="#1e1e1e" stroke-width="2" fill="none"></path></g><g transform="translate(2776.935974396637 1244.590732707541) rotate(0 254.91507830046612 -119.49144295334327)"><path d="M487.53 -12.19 C493.37 -9.44, 498.07 -6.37, 508.97 0.66 M487.53 -12.19 C493.48 -9.4, 498.66 -4.65, 508.97 0.66" stroke="#1e1e1e" stroke-width="2" fill="none"></path></g><g transform="translate(2776.935974396637 1244.590732707541) rotate(0 254.91507830046612 -119.49144295334327)"><path d="M500.8 -22.97 C503.76 -17.86, 505.47 -12.37, 508.97 0.66 M500.8 -22.97 C503.33 -17.21, 505.01 -9.62, 508.97 0.66" stroke="#1e1e1e" stroke-width="2" fill="none"></path></g></g><mask id="mask-rFyP-pQs6k9GFC8-a5ljK"><rect x="0" y="0" fill="#fff" width="3386.7661309975692" height="1583.573618614228"></rect><rect x="2786.382913866122" y="949.6579933849507" fill="#000" width="501.5577392578125" height="111.89970683180705" opacity="1"></rect></mask><g transform="translate(2786.382913866122 949.6579933849507) rotate(0 245.09442482503346 175.05631557903916)"><text x="250.77886962890625" y="78.41931454773038" font-family="Virgil, Segoe UI Emoji" font-size="89.51976546544564px" fill="#1e1e1e" text-anchor="middle" style="white-space: pre;" direction="ltr" dominant-baseline="alphabetic">Accept Bet</text></g><g mask="url(#mask-MT5Fiun7wF021EY5ldd7V)" stroke-linecap="round"><g transform="translate(4306.917392388786 1213.0677057680023) rotate(0 254.91507830046612 -119.49144295334327)"><path d="M0.45 -0.06 C43.66 -39.71, 174.72 -238.09, 259.8 -238.04 C344.87 -238, 469.32 -39.39, 510.91 0.23 M-0.77 -1.14 C42.2 -41.09, 173.38 -240.14, 258.62 -239.67 C343.87 -239.21, 468.92 -38.38, 510.7 1.66" stroke="#1e1e1e" stroke-width="2" fill="none"></path></g><g transform="translate(4306.917392388786 1213.0677057680023) rotate(0 254.91507830046612 -119.49144295334327)"><path d="M489.24 -11.15 C496.51 -7.54, 505.57 -0.62, 510.7 1.66 M489.24 -11.15 C496.97 -7.42, 503.83 -3.1, 510.7 1.66" stroke="#1e1e1e" stroke-width="2" fill="none"></path></g><g transform="translate(4306.917392388786 1213.0677057680023) rotate(0 254.91507830046612 -119.49144295334327)"><path d="M502.5 -21.95 C505.19 -14.57, 509.68 -3.93, 510.7 1.66 M502.5 -21.95 C505.96 -14.81, 508.59 -7.05, 510.7 1.66" stroke="#1e1e1e" stroke-width="2" fill="none"></path></g></g><mask id="mask-MT5Fiun7wF021EY5ldd7V"><rect x="0" y="0" fill="#fff" width="4916.747548989718" height="1552.0505916746893"></rect><rect x="4316.364331858271" y="918.1349664454119" fill="#000" width="501.5577392578125" height="111.89970683180705" opacity="1"></rect></mask><g transform="translate(4316.364331858271 918.134966445411) rotate(0 245.62210070161836 175.9268331822077)"><text x="250.77886962890625" y="78.41931454773038" font-family="Virgil, Segoe UI Emoji" font-size="89.51976546544564px" fill="#1e1e1e" text-anchor="middle" style="white-space: pre;" direction="ltr" dominant-baseline="alphabetic">Accept Bet</text></g><g mask="url(#mask-tvgtH2Gd38kvISGbs86Ih)" stroke-linecap="round"><g transform="translate(5825.7864005957335 304.93273932259035) rotate(0 254.91507830046612 -119.49144295334327)"><path d="M0.94 1.07 C44.36 -38.77, 175.7 -239.49, 260.45 -239.48 C345.21 -239.47, 467.99 -38.98, 509.47 1.13 M-0.03 0.59 C43.26 -39.05, 174.86 -238, 259.62 -238.2 C344.38 -238.4, 466.91 -40.19, 508.52 -0.62" stroke="#1e1e1e" stroke-width="2" fill="none"></path></g><g transform="translate(5825.7864005957335 304.93273932259035) rotate(0 254.91507830046612 -119.49144295334327)"><path d="M487.05 -13.43 C495.13 -9.44, 498.84 -6.64, 508.52 -0.62 M487.05 -13.43 C495.28 -9.15, 503.02 -2.6, 508.52 -0.62" stroke="#1e1e1e" stroke-width="2" fill="none"></path></g><g transform="translate(5825.7864005957335 304.93273932259035) rotate(0 254.91507830046612 -119.49144295334327)"><path d="M500.3 -24.23 C504.44 -16.96, 504.24 -10.96, 508.52 -0.62 M500.3 -24.23 C503.27 -15.57, 505.78 -4.76, 508.52 -0.62" stroke="#1e1e1e" stroke-width="2" fill="none"></path></g></g><mask id="mask-tvgtH2Gd38kvISGbs86Ih"><rect x="0" y="0" fill="#fff" width="6435.616557196666" height="643.9156252292772"></rect><rect x="5835.233340065219" y="10" fill="#000" width="501.5577392578125" height="111.89970683180705" opacity="1"></rect></mask><g transform="translate(5835.233340065219 10) rotate(0 245.277430344212 175.7572038341068)"><text x="250.77886962890625" y="78.41931454773038" font-family="Virgil, Segoe UI Emoji" font-size="89.51976546544564px" fill="#1e1e1e" text-anchor="middle" style="white-space: pre;" direction="ltr" dominant-baseline="alphabetic">Accept Bet</text></g><g mask="url(#mask-HRZDRYPscRUYTuolTJzPR)" stroke-linecap="round"><g transform="translate(3458.522680495099 1607.0321169284434) rotate(0 347.18604952559235 -6.863804833329596)"><path d="M-0.5 -0.36 C115.24 -2.76, 579.5 -11.96, 695.5 -14.22 M1.44 -1.59 C117.03 -3.85, 579.49 -11.08, 695.14 -12.94" stroke="#1e1e1e" stroke-width="2" fill="none"></path></g><g transform="translate(3458.522680495099 1607.0321169284434) rotate(0 347.18604952559235 -6.863804833329596)"><path d="M671.79 -4.02 C680.28 -5.52, 689.15 -8.95, 695.14 -12.94 M671.79 -4.02 C679.38 -6.49, 684.85 -9.68, 695.14 -12.94" stroke="#1e1e1e" stroke-width="2" fill="none"></path></g><g transform="translate(3458.522680495099 1607.0321169284434) rotate(0 347.18604952559235 -6.863804833329596)"><path d="M671.52 -21.12 C680.15 -15.95, 689.12 -12.73, 695.14 -12.94 M671.52 -21.12 C679.09 -18.76, 684.64 -17.12, 695.14 -12.94" stroke="#1e1e1e" stroke-width="2" fill="none"></path></g></g><mask id="mask-HRZDRYPscRUYTuolTJzPR"><rect x="0" y="0" fill="#fff" width="4252.894779546284" height="1720.7597265951026"></rect><rect x="3678.842541971375" y="1544.21845867921" fill="#000" width="253.7323760986328" height="111.89970683180705" opacity="1"></rect></mask><g transform="translate(3678.8425419713767 1544.21845867921) rotate(0 127.18209565877805 55.52606979173197)"><text x="126.8661880493164" y="78.41931454773038" font-family="Virgil, Segoe UI Emoji" font-size="89.51976546544564px" fill="#1e1e1e" text-anchor="middle" style="white-space: pre;" direction="ltr" dominant-baseline="alphabetic">Start</text></g></svg>
